<?xml version="1.0" encoding="UTF-8"?>
<svg id="b" data-name="Layer 2" xmlns="http://www.w3.org/2000/svg" width="248" height="8" xmlns:xlink="http://www.w3.org/1999/xlink" viewBox="0 0 248 8">
  <defs>
    <linearGradient id="d" x1="-440" y1="-261.15" x2="-440" y2="-269.15" gradientTransform="translate(564 -261.15) scale(1 -1)" gradientUnits="userSpaceOnUse">
      <stop offset="0" stop-color="#b97208"/>
      <stop offset="1" stop-color="#ffd800"/>
    </linearGradient>
  </defs>
  <g id="c" data-name="Layer 1">
    <g>
      <path d="m4,0h240c2.21,0,4,1.79,4,4h0c0,2.21-1.79,4-4,4H4C1.79,8,0,6.21,0,4h0C0,1.79,1.79,0,4,0Z" fill="url(#d)" stroke-width="0"/>
      <path d="m4,1h240c1.66,0,3,1.34,3,3h0c0,1.66-1.34,3-3,3H4c-1.66,0-3-1.34-3-3h0c0-1.66,1.34-3,3-3Z" fill="none" stroke="#ffd739" stroke-width="2"/>
    </g>
  </g>
</svg>