<?xml version="1.0" encoding="UTF-8"?>
<svg id="b" data-name="Layer 2" xmlns="http://www.w3.org/2000/svg" width="26" height="26" xmlns:xlink="http://www.w3.org/1999/xlink" viewBox="0 0 26 26">
  <defs>
    <linearGradient id="d" x1="-551" y1="-245.15" x2="-551" y2="-267.15" gradientTransform="translate(564 -243.15) scale(1 -1)" gradientUnits="userSpaceOnUse">
      <stop offset="0" stop-color="#3b3d4b"/>
      <stop offset="1" stop-color="#272934"/>
    </linearGradient>
  </defs>
  <g id="c" data-name="Layer 1">
    <g>
      <g>
        <path d="m13,24c6.08,0,11-4.92,11-11S19.08,2,13,2,2,6.92,2,13s4.92,11,11,11Z" fill="url(#d)" fill-rule="evenodd" stroke-width="0"/>
        <path d="m13,25c6.63,0,12-5.37,12-12S19.63,1,13,1,1,6.37,1,13s5.37,12,12,12Z" fill="none" stroke="rgba(32, 34, 44, .3)" stroke-width="2"/>
      </g>
      <path d="m13,18c2.76,0,5-2.24,5-5s-2.24-5-5-5-5,2.24-5,5,2.24,5,5,5Z" fill="#ffd739" fill-rule="evenodd" stroke-width="0"/>
    </g>
  </g>
</svg>